<svg xmlns="http://www.w3.org/2000/svg" viewBox="0 0 430 340">
      <defs><filter id="blur"><feGaussianBlur stdDeviation="18"/></filter></defs>
      <g opacity=".75">
        <rect x="110" y="18" width="69" height="69" rx="15" fill="#EEF2FF"/>
        <rect x="337" y="48" width="66" height="66" rx="14" fill="#F0F3FA"/>
        <rect x="186" y="274" width="63" height="63" rx="14" fill="#F1F4FA"/>
      </g>
      <g fill="#D9E2FF" opacity=".7">
        <circle cx="95" cy="170" r="1.5"/><circle cx="95" cy="184" r="1.5"/><circle cx="95" cy="198" r="1.5"/><circle cx="95" cy="212" r="1.5"/><circle cx="95" cy="226" r="1.5"/><circle cx="95" cy="240" r="1.5"/><circle cx="95" cy="254" r="1.5"/><circle cx="109" cy="170" r="1.5"/><circle cx="109" cy="184" r="1.5"/><circle cx="109" cy="198" r="1.5"/><circle cx="109" cy="212" r="1.5"/><circle cx="109" cy="226" r="1.5"/><circle cx="109" cy="240" r="1.5"/><circle cx="109" cy="254" r="1.5"/><circle cx="123" cy="170" r="1.5"/><circle cx="123" cy="184" r="1.5"/><circle cx="123" cy="198" r="1.5"/><circle cx="123" cy="212" r="1.5"/><circle cx="123" cy="226" r="1.5"/><circle cx="123" cy="240" r="1.5"/><circle cx="123" cy="254" r="1.5"/><circle cx="137" cy="170" r="1.5"/><circle cx="137" cy="184" r="1.5"/><circle cx="137" cy="198" r="1.5"/><circle cx="137" cy="212" r="1.5"/><circle cx="137" cy="226" r="1.5"/><circle cx="137" cy="240" r="1.5"/><circle cx="137" cy="254" r="1.5"/><circle cx="151" cy="170" r="1.5"/><circle cx="151" cy="184" r="1.5"/><circle cx="151" cy="198" r="1.5"/><circle cx="151" cy="212" r="1.5"/><circle cx="151" cy="226" r="1.5"/><circle cx="151" cy="240" r="1.5"/><circle cx="151" cy="254" r="1.5"/>
        <circle cx="256" cy="20" r="1.3"/><circle cx="256" cy="34" r="1.3"/><circle cx="256" cy="48" r="1.3"/><circle cx="256" cy="62" r="1.3"/><circle cx="270" cy="20" r="1.3"/><circle cx="270" cy="34" r="1.3"/><circle cx="270" cy="48" r="1.3"/><circle cx="270" cy="62" r="1.3"/><circle cx="284" cy="20" r="1.3"/><circle cx="284" cy="34" r="1.3"/><circle cx="284" cy="48" r="1.3"/><circle cx="284" cy="62" r="1.3"/><circle cx="298" cy="20" r="1.3"/><circle cx="298" cy="34" r="1.3"/><circle cx="298" cy="48" r="1.3"/><circle cx="298" cy="62" r="1.3"/><circle cx="312" cy="20" r="1.3"/><circle cx="312" cy="34" r="1.3"/><circle cx="312" cy="48" r="1.3"/><circle cx="312" cy="62" r="1.3"/><circle cx="326" cy="20" r="1.3"/><circle cx="326" cy="34" r="1.3"/><circle cx="326" cy="48" r="1.3"/><circle cx="326" cy="62" r="1.3"/>
      </g>
      <path d="M103 110v31c0 17 10 25 26 25h79M208 166v-20M208 166h87M295 166v86c0 17 10 25 29 25" fill="none" stroke="#3658D4" stroke-width="2"/>
      <circle cx="208" cy="166" r="4" fill="#3658D4"/>
      <circle cx="295" cy="166" r="4" fill="#3658D4"/>
      <rect x="158" y="90" width="151" height="118" rx="17" fill="#FFFFFF" stroke="#D9E1FA"/>
      <circle cx="183" cy="121" r="10" fill="#C9D6FA"/>
      <path d="M204 116h64M204 127h48M204 153h64M204 164h45M204 190h57" stroke="#E4E8F1" stroke-width="8" stroke-linecap="round"/>
      <rect x="64" y="52" width="58" height="58" rx="13" fill="#F6F8FF" stroke="#D9E1FA"/><path d="M83 68h26l8 8v20H83z" fill="#DCE6FF"/><path d="M107 68v9h10" fill="#BCD0FF"/><path d="M90 86h18M90 92h18" stroke="#3658D4" stroke-width="3" stroke-linecap="round"/><rect x="303" y="93" width="54" height="54" rx="13" fill="#3658D4"/><circle cx="330" cy="120" r="5" fill="#DCE6FF"/><rect x="324" y="241" width="66" height="66" rx="14" fill="#F5FBF9" stroke="#D6EFE9"/><rect x="344" y="261" width="28" height="28" rx="4" fill="#2D8A79"/><path d="M351 267h6v6h-6zM360 267h6v6h-6zM351 276h6v6h-6zM360 276h6v6h-6z" fill="white"/>
    </svg>